<svg width="300" height="250" viewBox="0 0 300 250" xmlns="http://www.w3.org/2000/svg">
  <defs>
    <linearGradient id="windowGradient" x1="0%" y1="0%" x2="100%" y2="100%">
      <stop offset="0%" style="stop-color:#f8fafc;stop-opacity:1" />
      <stop offset="100%" style="stop-color:#e2e8f0;stop-opacity:1" />
    </linearGradient>
    <linearGradient id="frameGradient" x1="0%" y1="0%" x2="100%" y2="100%">
      <stop offset="0%" style="stop-color:#64748b;stop-opacity:1" />
      <stop offset="100%" style="stop-color:#475569;stop-opacity:1" />
    </linearGradient>
    <linearGradient id="glassGradient" x1="0%" y1="0%" x2="100%" y2="100%">
      <stop offset="0%" style="stop-color:#e0f2fe;stop-opacity:0.8" />
      <stop offset="50%" style="stop-color:#bae6fd;stop-opacity:0.4" />
      <stop offset="100%" style="stop-color:#7dd3fc;stop-opacity:0.3" />
    </linearGradient>
  </defs>
  
  <!-- Background -->
  <rect width="300" height="250" fill="url(#windowGradient)"/>
  
  <!-- Window frame -->
  <rect x="50" y="40" width="200" height="170" fill="url(#frameGradient)" rx="8"/>
  
  <!-- Glass panels -->
  <rect x="65" y="55" width="85" height="70" fill="url(#glassGradient)" rx="4"/>
  <rect x="165" y="55" width="85" height="70" fill="url(#glassGradient)" rx="4"/>
  <rect x="65" y="140" width="85" height="70" fill="url(#glassGradient)" rx="4"/>
  <rect x="165" y="140" width="85" height="70" fill="url(#glassGradient)" rx="4"/>
  
  <!-- Window dividers -->
  <rect x="155" y="55" width="4" height="155" fill="url(#frameGradient)"/>
  <rect x="65" y="130" width="185" height="4" fill="url(#frameGradient)"/>
  
  <!-- Window handles -->
  <circle cx="170" cy="100" r="3" fill="#2563eb"/>
  <circle cx="240" cy="180" r="3" fill="#2563eb"/>
  
  <!-- Subtle reflection effect -->
  <rect x="65" y="55" width="20" height="155" fill="white" opacity="0.3" rx="2"/>
  <rect x="165" y="55" width="20" height="155" fill="white" opacity="0.2" rx="2"/>
</svg>