<svg width="300" height="250" viewBox="0 0 300 250" xmlns="http://www.w3.org/2000/svg">
  <defs>
    <linearGradient id="doorBg" x1="0%" y1="0%" x2="100%" y2="100%">
      <stop offset="0%" style="stop-color:#f8fafc;stop-opacity:1" />
      <stop offset="100%" style="stop-color:#e2e8f0;stop-opacity:1" />
    </linearGradient>
    <linearGradient id="doorFrame" x1="0%" y1="0%" x2="100%" y2="100%">
      <stop offset="0%" style="stop-color:#64748b;stop-opacity:1" />
      <stop offset="100%" style="stop-color:#475569;stop-opacity:1" />
    </linearGradient>
    <linearGradient id="doorPanel" x1="0%" y1="0%" x2="100%" y2="100%">
      <stop offset="0%" style="stop-color:#8b5cf6;stop-opacity:1" />
      <stop offset="100%" style="stop-color:#7c3aed;stop-opacity:1" />
    </linearGradient>
    <linearGradient id="glass" x1="0%" y1="0%" x2="100%" y2="100%">
      <stop offset="0%" style="stop-color:#e0f2fe;stop-opacity:0.8" />
      <stop offset="50%" style="stop-color:#bae6fd;stop-opacity:0.4" />
      <stop offset="100%" style="stop-color:#7dd3fc;stop-opacity:0.3" />
    </linearGradient>
  </defs>
  
  <!-- Background -->
  <rect width="300" height="250" fill="url(#doorBg)"/>
  
  <!-- Door frame -->
  <rect x="80" y="20" width="140" height="210" fill="url(#doorFrame)" rx="12"/>
  
  <!-- Door panel -->
  <rect x="90" y="30" width="120" height="190" fill="url(#doorPanel)" rx="8"/>
  
  <!-- Glass window in door -->
  <rect x="110" y="50" width="80" height="60" fill="url(#glass)" rx="6"/>
  
  <!-- Door panels -->
  <rect x="105" y="130" width="90" height="35" fill="none" stroke="#6d28d9" stroke-width="2" rx="4"/>
  <rect x="105" y="175" width="90" height="35" fill="none" stroke="#6d28d9" stroke-width="2" rx="4"/>
  
  <!-- Door handle -->
  <ellipse cx="185" cy="140" rx="4" ry="8" fill="#fbbf24"/>
  <rect x="183" y="135" width="4" height="10" fill="#f59e0b"/>
  
  <!-- Lock -->
  <rect x="180" y="155" width="8" height="6" fill="#374151" rx="1"/>
  
  <!-- Door hinges -->
  <rect x="92" y="45" width="6" height="12" fill="#374151" rx="1"/>
  <rect x="92" y="125" width="6" height="12" fill="#374151" rx="1"/>
  <rect x="92" y="205" width="6" height="12" fill="#374151" rx="1"/>
  
  <!-- Shadow -->
  <rect x="220" y="30" width="8" height="190" fill="#000000" opacity="0.1" rx="4"/>
  
  <!-- Reflection on glass -->
  <rect x="115" y="55" width="15" height="50" fill="white" opacity="0.4" rx="2"/>
</svg>