<svg width="300" height="250" viewBox="0 0 300 250" xmlns="http://www.w3.org/2000/svg">
  <defs>
    <linearGradient id="rollladenBg" x1="0%" y1="0%" x2="100%" y2="100%">
      <stop offset="0%" style="stop-color:#f8fafc;stop-opacity:1" />
      <stop offset="100%" style="stop-color:#e2e8f0;stop-opacity:1" />
    </linearGradient>
    <linearGradient id="shutterGradient" x1="0%" y1="0%" x2="100%" y2="100%">
      <stop offset="0%" style="stop-color:#475569;stop-opacity:1" />
      <stop offset="100%" style="stop-color:#334155;stop-opacity:1" />
    </linearGradient>
    <linearGradient id="frameGradient" x1="0%" y1="0%" x2="100%" y2="100%">
      <stop offset="0%" style="stop-color:#64748b;stop-opacity:1" />
      <stop offset="100%" style="stop-color:#475569;stop-opacity:1" />
    </linearGradient>
  </defs>
  
  <!-- Background -->
  <rect width="300" height="250" fill="url(#rollladenBg)"/>
  
  <!-- Window frame behind -->
  <rect x="60" y="40" width="180" height="170" fill="url(#frameGradient)" rx="8"/>
  
  <!-- Shutter box -->
  <rect x="55" y="35" width="190" height="25" fill="url(#shutterGradient)" rx="4"/>
  
  <!-- Shutter slats -->
  <rect x="65" y="70" width="170" height="8" fill="url(#shutterGradient)" rx="2"/>
  <rect x="65" y="85" width="170" height="8" fill="url(#shutterGradient)" rx="2"/>
  <rect x="65" y="100" width="170" height="8" fill="url(#shutterGradient)" rx="2"/>
  <rect x="65" y="115" width="170" height="8" fill="url(#shutterGradient)" rx="2"/>
  <rect x="65" y="130" width="170" height="8" fill="url(#shutterGradient)" rx="2"/>
  <rect x="65" y="145" width="170" height="8" fill="url(#shutterGradient)" rx="2"/>
  <rect x="65" y="160" width="170" height="8" fill="url(#shutterGradient)" rx="2"/>
  <rect x="65" y="175" width="170" height="8" fill="url(#shutterGradient)" rx="2"/>
  <rect x="65" y="190" width="170" height="8" fill="url(#shutterGradient)" rx="2"/>
  
  <!-- Side guides -->
  <rect x="55" y="60" width="8" height="150" fill="url(#frameGradient)" rx="2"/>
  <rect x="237" y="60" width="8" height="150" fill="url(#frameGradient)" rx="2"/>
  
  <!-- Control handle/strap -->
  <rect x="245" y="80" width="3" height="80" fill="#f59e0b" rx="1"/>
  <circle cx="247" cy="85" r="4" fill="#fbbf24"/>
  
  <!-- Shadow effects on slats -->
  <rect x="65" y="78" width="170" height="2" fill="#000000" opacity="0.2"/>
  <rect x="65" y="93" width="170" height="2" fill="#000000" opacity="0.2"/>
  <rect x="65" y="108" width="170" height="2" fill="#000000" opacity="0.2"/>
  <rect x="65" y="123" width="170" height="2" fill="#000000" opacity="0.2"/>
  <rect x="65" y="138" width="170" height="2" fill="#000000" opacity="0.2"/>
  <rect x="65" y="153" width="170" height="2" fill="#000000" opacity="0.2"/>
  <rect x="65" y="168" width="170" height="2" fill="#000000" opacity="0.2"/>
  <rect x="65" y="183" width="170" height="2" fill="#000000" opacity="0.2"/>
  <rect x="65" y="198" width="170" height="2" fill="#000000" opacity="0.2"/>
  
  <!-- Highlight on top of slats -->
  <rect x="65" y="70" width="170" height="1" fill="white" opacity="0.3"/>
  <rect x="65" y="85" width="170" height="1" fill="white" opacity="0.3"/>
  <rect x="65" y="100" width="170" height="1" fill="white" opacity="0.3"/>
  <rect x="65" y="115" width="170" height="1" fill="white" opacity="0.3"/>
  <rect x="65" y="130" width="170" height="1" fill="white" opacity="0.3"/>
  <rect x="65" y="145" width="170" height="1" fill="white" opacity="0.3"/>
  <rect x="65" y="160" width="170" height="1" fill="white" opacity="0.3"/>
  <rect x="65" y="175" width="170" height="1" fill="white" opacity="0.3"/>
  <rect x="65" y="190" width="170" height="1" fill="white" opacity="0.3"/>
</svg>